<svg version="1.0" xmlns="http://www.w3.org/2000/svg" width="300.000000pt" height="300.000000pt" viewBox="0 0 300.000000 300.000000" preserveAspectRatio="xMidYMid meet"> <g transform="translate(0.000000,300.000000) scale(0.100000,-0.100000)" fill="#FFF" stroke="none"> <path d="M361 2636 c-8 -10 -10 -316 -9 -1142 l3 -1129 1145 0 1145 0 3 1129 c1 826 -1 1132 -9 1142 -10 12 -201 14 -1139 14 -938 0 -1129 -2 -1139 -14z m2242 -1136 l2 -1100 -1105 0 -1105 0 2 1102 c2 607 3 1103 3 1103 0 0 495 -1 1100 -2 l1100 -3 3 -1100z"/> <path d="M981 2221 c-107 -38 -163 -105 -168 -204 -5 -79 21 -128 91 -172 42 -25 59 -30 110 -29 121 2 217 85 216 187 -1 40 -14 19 -24 -36 -15 -83 -118 -146 -216 -133 -163 22 -185 250 -33 346 97 62 196 62 416 0 l116 -33 -72 -72 c-40 -40 -97 -111 -127 -159 -203 -323 -265 -397 -373 -450 -64 -32 -156 -49 -211 -41 -68 11 -140 51 -172 96 -36 53 -45 147 -20 214 41 106 165 154 266 103 85 -43 103 -131 40 -201 -26 -29 -34 -32 -84 -31 -30 0 -52 -4 -50 -8 3 -4 27 -8 54 -8 41 0 55 5 84 30 69 61 69 149 1 209 -43 38 -69 45 -143 39 -74 -5 -129 -34 -167 -87 -25 -36 -30 -54 -33 -116 -3 -61 0 -82 18 -119 45 -93 130 -138 260 -138 228 0 411 119 516 335 l32 68 141 2 c78 1 141 0 141 -2 0 -2 -16 -35 -35 -75 -66 -133 -84 -257 -44 -297 25 -25 54 -20 114 21 37 26 95 95 95 114 0 4 -23 -18 -51 -49 -53 -57 -102 -90 -119 -80 -47 29 79 336 221 539 l62 89 27 -34 28 -33 -43 -53 c-137 -168 -152 -379 -36 -494 56 -57 105 -72 211 -67 93 4 168 37 239 103 116 109 124 249 15 285 -42 14 -87 7 -131 -20 -33 -19 -72 -80 -53 -80 6 0 16 11 22 25 29 63 137 87 183 40 30 -29 34 -89 8 -142 -24 -52 -108 -139 -156 -162 -117 -57 -222 -49 -281 21 -45 52 -60 109 -54 211 4 70 10 96 40 158 19 41 47 88 62 106 l27 32 52 -24 c149 -68 387 -54 482 28 32 28 39 41 39 69 0 43 -15 63 -68 91 -78 40 -277 32 -386 -17 -12 -5 -18 2 -25 26 -9 30 -14 33 -55 36 -36 2 -54 -3 -83 -23 -46 -31 -49 -31 -36 -2 25 54 131 77 198 43 35 -18 41 -19 41 -7 0 16 -82 42 -132 43 -85 0 -138 -39 -138 -103 0 -12 -27 -50 -64 -90 -35 -38 -86 -101 -112 -139 l-48 -70 -147 0 -148 0 22 48 c44 93 86 160 135 210 l50 51 47 -15 c65 -19 154 -18 183 2 29 20 25 54 -8 72 -34 18 -129 8 -181 -19 l-41 -21 -127 38 c-105 30 -145 37 -241 41 -95 3 -124 0 -169 -16z m753 -37 c29 -11 18 -42 -20 -54 -27 -9 -50 -9 -100 0 -35 7 -64 16 -64 20 0 24 143 50 184 34z m291 -48 c8 -24 7 -31 -9 -40 -10 -6 -39 -26 -63 -43 -24 -18 -47 -33 -52 -33 -4 0 -16 16 -26 34 -19 34 -19 35 0 57 57 64 132 76 150 25z m387 -6 c40 -12 78 -51 78 -82 0 -33 -61 -85 -121 -103 -123 -37 -265 -30 -382 20 l-38 16 45 38 c61 53 109 81 174 102 64 20 187 25 244 9z"/> <path d="M1621 1293 c-58 -70 -108 -235 -84 -278 8 -14 14 -8 36 37 15 29 40 69 57 88 27 32 29 33 30 12 0 -31 -33 -93 -70 -130 -36 -37 -37 -42 -6 -42 49 0 128 126 112 178 -13 41 -39 36 -85 -15 -35 -38 -42 -43 -36 -23 14 45 47 104 81 147 33 40 34 42 15 52 -17 9 -24 5 -50 -26z"/> <path d="M1881 1248 c-22 -46 -50 -117 -62 -160 -22 -75 -22 -77 -4 -105 17 -25 20 -26 22 -8 17 114 71 255 115 302 21 23 21 23 2 38 -10 8 -22 15 -26 15 -4 0 -25 -37 -47 -82z"/> <path d="M1091 1240 c-53 -67 -136 -232 -128 -253 10 -25 37 -21 37 6 0 39 114 257 127 243 3 -3 -2 -33 -10 -68 -9 -35 -17 -92 -19 -128 -3 -64 -3 -65 25 -68 22 -3 27 1 27 17 0 50 110 265 126 248 3 -3 -2 -39 -11 -79 -9 -41 -15 -99 -13 -129 3 -46 6 -54 24 -57 20 -3 21 3 27 90 3 54 14 117 25 151 l21 58 -27 10 c-25 10 -30 7 -68 -35 -22 -26 -57 -79 -77 -119 -20 -40 -37 -68 -37 -64 0 16 41 171 50 188 7 12 3 19 -16 28 -37 17 -40 15 -83 -39z"/> <path d="M1786 1239 c-3 -17 -2 -37 2 -45 6 -11 13 -7 31 17 23 31 23 33 6 46 -27 19 -32 17 -39 -18z"/> <path d="M1413 1170 c-31 -19 -73 -91 -73 -126 0 -26 27 -64 46 -64 28 0 75 31 94 63 30 48 26 99 -9 124 -28 21 -29 21 -58 3z m42 -116 c-17 -32 -60 -63 -71 -51 -16 16 10 83 44 116 l37 36 3 -35 c2 -20 -4 -49 -13 -66z"/> <path d="M1948 1153 c-28 -29 -58 -90 -58 -118 0 -21 36 -55 59 -55 21 0 81 46 81 62 0 5 -14 -2 -31 -17 -34 -28 -62 -30 -67 -3 -2 11 9 22 32 33 47 23 68 48 69 87 2 30 -1 33 -28 36 -23 2 -37 -4 -57 -25z m62 -19 c0 -17 -58 -80 -66 -71 -8 8 24 65 43 76 23 13 23 14 23 -5z"/> <path d="M1734 1125 c-18 -43 -23 -126 -8 -132 6 -2 16 16 23 39 7 24 21 57 31 74 13 23 15 35 7 43 -20 20 -38 12 -53 -24z"/> <path d="M803 935 c-38 -16 -57 -47 -41 -63 9 -9 16 -4 30 18 10 17 22 30 28 30 10 0 8 -6 -37 -119 l-26 -65 23 -18 c66 -53 180 29 180 130 0 46 -16 71 -55 88 -42 17 -61 17 -102 -1z m108 -24 c62 -50 -7 -181 -96 -181 l-25 0 20 50 c11 28 29 69 40 90 19 37 19 40 2 49 -15 9 -13 10 9 11 15 0 37 -8 50 -19z"/><path d="M1078 943 c-63 -4 -63 -5 -47 -31 12 -20 -3 -72 -22 -72 -6 0 -8 -7 -5 -16 3 -9 -3 -35 -13 -59 -25 -57 -15 -65 67 -58 45 4 62 10 62 21 0 12 -10 13 -55 7 l-55 -6 17 45 c16 44 19 46 55 46 27 0 38 4 38 15 0 10 -10 15 -30 15 -35 0 -35 1 -15 40 13 26 21 30 56 30 28 0 39 4 37 13 -5 14 -12 15 -90 10z"/><path d="M1258 943 c-51 -3 -68 -8 -68 -18 0 -10 11 -15 36 -15 25 0 34 -4 31 -12 -3 -7 -18 -50 -33 -95 -22 -66 -26 -85 -16 -95 15 -15 31 4 32 37 1 11 14 54 29 95 25 69 30 75 57 77 16 0 33 2 38 2 5 1 3 8 -4 16 -7 8 -18 14 -24 13 -6 -1 -41 -3 -78 -5z"/><path d="M1411 900 c-28 -28 -51 -55 -51 -60 0 -5 -10 -12 -21 -15 -16 -5 -18 -9 -8 -15 9 -6 10 -13 3 -22 -25 -33 -33 -66 -19 -78 10 -8 16 0 30 45 17 52 19 55 51 55 33 0 33 0 36 -52 2 -41 7 -54 20 -56 15 -3 17 2 12 25 -5 25 15 144 31 185 4 11 0 20 -14 27 -17 10 -27 4 -70 -39z m34 -34 c-6 -32 -11 -36 -37 -36 -33 0 -32 3 16 57 25 29 29 24 21 -21z"/><path d="M1645 863 c-15 -49 -33 -100 -41 -114 -19 -38 -1 -50 64 -42 36 4 52 10 52 21 0 11 -9 13 -45 8 l-45 -7 21 53 c11 29 29 73 40 97 14 33 16 47 8 57 -6 8 -15 14 -19 14 -4 0 -20 -39 -35 -87z"/><path d="M1892 882 c-38 -85 -56 -146 -49 -166 10 -26 27 -18 27 12 0 28 40 175 47 169 2 -2 8 -42 14 -88 17 -135 46 -147 72 -30 10 44 28 95 42 114 23 35 23 47 0 47 -15 0 -31 -38 -55 -127 l-17 -68 -8 47 c-4 26 -5 67 -4 92 4 38 1 47 -17 55 -20 9 -24 4 -52 -57z"/><path d="M2140 928 c-52 -35 -73 -71 -78 -131 -4 -49 -2 -56 23 -75 15 -12 35 -22 44 -22 19 0 81 60 81 78 0 7 5 12 10 12 6 0 10 7 10 15 0 18 -36 20 -77 4 -22 -8 -24 -12 -13 -19 8 -5 23 -7 33 -4 24 7 21 -5 -7 -41 -21 -25 -28 -28 -43 -19 -57 35 3 204 73 204 26 0 30 -10 12 -28 -9 -9 -9 -15 0 -24 8 -8 14 -5 23 15 25 54 -31 75 -91 35z"/><path d="M1559 894 c-40 -95 -50 -182 -21 -192 8 -2 12 7 12 25 0 40 28 131 51 169 17 28 18 32 3 38 -24 9 -23 9 -45 -40z"/><path d="M1807 913 c-27 -54 -48 -132 -45 -169 4 -48 28 -59 28 -12 0 18 12 65 26 103 13 39 26 76 27 84 4 26 -22 22 -36 -6z"/></g></svg>